<?xml version="1.0" encoding="UTF-8"?>
<svg xmlns="http://www.w3.org/2000/svg" viewBox="0 0 325.97 48.62" role="img" aria-labelledby="title" fill="#fff">
  <title id="title">NullPerator</title>
  <g>
    <path d="M0,42.44V6.18C0,2.2,2.2,0,6.18,0h8.1c3.98,0,6.18,2.2,6.18,6.18v36.26c0,3.98-2.2,6.18-6.18,6.18H6.18c-3.98,0-6.18-2.2-6.18-6.18ZM13.6,43.41c.89,0,1.37-.48,1.37-1.37V6.59c0-.89-.48-1.37-1.37-1.37h-6.73c-.89,0-1.37.48-1.37,1.37v35.44c0,.89.48,1.37,1.37,1.37h6.73Z"/>
    <path d="M45.74.27h13.87c3.98,0,6.18,2.2,6.18,6.18v16.9c0,3.98-2.2,6.18-6.18,6.18h-8.38v18.82h-5.49V.27ZM58.93,24.31c.89,0,1.37-.48,1.37-1.37V6.87c0-.89-.48-1.37-1.37-1.37h-7.69v18.82h7.69Z"/>
    <path d="M90.39.27h16.62v5.22h-11.13v15.8h10.71v5.22h-10.71v16.62h11.4v5.22h-16.89V.27Z"/>
    <path d="M131.18.27h13.87c3.98,0,6.18,2.2,6.18,6.18v15.8c0,3.37-1.58,5.5-4.53,6.04l5.22,20.05h-5.49l-5.15-19.92h-4.6v19.92h-5.49V.27ZM144.37,23.21c.89,0,1.37-.48,1.37-1.37V6.87c0-.89-.48-1.37-1.37-1.37h-7.69v17.72h7.69Z"/>
    <path d="M181.46.27h8.93l7.21,48.08h-5.49l-1.58-10.99h-9.2l-1.58,10.99h-5.49L181.46.27ZM189.77,32.14l-3.85-26.65-3.85,26.65h7.69Z"/>
    <path d="M216.97.27h19.64v5.22h-7.07v42.86h-5.49V5.49h-7.07V.27Z"/>
    <path d="M259.48,42.44V6.18c0-3.98,2.2-6.18,6.18-6.18h8.1c3.98,0,6.18,2.2,6.18,6.18v36.26c0,3.98-2.2,6.18-6.18,6.18h-8.1c-3.98,0-6.18-2.2-6.18-6.18ZM273.08,43.41c.89,0,1.37-.48,1.37-1.37V6.59c0-.89-.48-1.37-1.37-1.37h-6.73c-.89,0-1.37.48-1.37,1.37v35.44c0,.89.48,1.37,1.37,1.37h6.73Z"/>
    <path d="M305.23.27h13.87c3.98,0,6.18,2.2,6.18,6.18v15.8c0,3.37-1.58,5.5-4.53,6.04l5.22,20.05h-5.49l-5.15-19.92h-4.6v19.92h-5.49V.27ZM318.41,23.21c.89,0,1.37-.48,1.37-1.37V6.87c0-.89-.48-1.37-1.37-1.37h-7.69v17.72h7.69Z"/>
  </g>
  <rect x="7.59" y="9.65" width="5.4" height="29.37" transform="translate(14.46 -1.76) rotate(32)"/>
</svg>
